<svg viewBox="0 0 800 400" xmlns="http://www.w3.org/2000/svg">
  <!-- 背景 -->
  <rect width="800" height="500" fill="#f0f8ff" opacity="0.3"/>
  
  <!-- 地球 -->
  <g transform="translate(100, 200)">
    <circle cx="0" cy="0" r="80" fill="#7EC0EE" stroke="#333" stroke-width="2"/>
    <!-- 簡略化した大陸 -->
    <path d="M -40 -20 Q -20 -50 0 -30 Q 20 -10 40 -25 Q 60 -40 70 -10 Q 50 20 20 15 Q 0 10 -20 30 Q -40 40 -50 20 Q -60 0 -40 -20" fill="#228B22" stroke="#228B22" stroke-width="1"/>
  </g>
  
  <!-- 地球の時計 -->
  <g transform="translate(50, 70)">
    <circle cx="0" cy="0" r="30" fill="white" stroke="#333" stroke-width="2"/>
    <line x1="0" y1="0" x2="0" y2="-20" stroke="#333" stroke-width="2"/>
    <text x="-20" y="-40" font-family="Arial" font-size="18" fill="#333">12:00</text>
  </g>

  <!-- 地球の時計 (時間経過後) -->
  <g transform="translate(150, 70)">
    <circle cx="0" cy="0" r="30" fill="white" stroke="#333" stroke-width="2"/>
    <line x1="0" y1="0" x2="0" y2="-20" stroke="#333" stroke-width="2"/>
    <line x1="0" y1="0" x2="15" y2="-15" stroke="#333" stroke-width="2"/>
    <text x="-20" y="-40" font-family="Arial" font-size="18" fill="#333">13:00</text>
  </g>
  
  <!-- ロケット (初期位置) -->
  <g transform="translate(400, 200)">
    <path d="M -40 15 L -40 -15 L 0 -25 L 40 0 L 0 25 L -40 15" fill="#C0C0C0" stroke="#333" stroke-width="2"/>
    <!-- エンジン炎 -->
    <path d="M -40 0 L -60 -10 L -70 0 L -60 10 Z" fill="#FF4500" stroke="#333" stroke-width="1"/>
  </g>
  
  <!-- ロケットの時計 (初期位置) -->
  <g transform="translate(400, 140)">
    <circle cx="0" cy="0" r="20" fill="white" stroke="#333" stroke-width="2"/>
    <line x1="0" y1="0" x2="0" y2="-13" stroke="#333" stroke-width="2"/>
    <text x="-15" y="-30" font-family="Arial" font-size="16" fill="#333">12:00</text>
  </g>
  
  <!-- ロケット (移動後位置) -->
  <g transform="translate(650, 200)">
    <path d="M -40 15 L -40 -15 L 0 -25 L 40 0 L 0 25 L -40 15" fill="#C0C0C0" stroke="#333" stroke-width="2"/>
    <!-- エンジン炎 -->
    <path d="M -40 0 L -60 -10 L -70 0 L -60 10 Z" fill="#FF4500" stroke="#333" stroke-width="1"/>
  </g>
  
  <!-- ロケットの時計 (移動後位置) -->
  <g transform="translate(650, 140)">
    <circle cx="0" cy="0" r="20" fill="white" stroke="#333" stroke-width="2"/>
    <line x1="0" y1="0" x2="0" y2="-13" stroke="#333" stroke-width="2"/>
    <line x1="0" y1="0" x2="7" y2="-12" stroke="#333" stroke-width="2"/>
    <text x="-15" y="-30" font-family="Arial" font-size="16" fill="#333">12:59</text>
  </g>
    
  <!-- 移動の矢印 -->
  <path d="M 450 200 L 570 200" stroke="#333" stroke-width="2" marker-end="url(#arrowhead)"/>
  <text x="500" y="135" font-family="Arial" font-size="20" fill="#333">速度 v</text>
  
  <!-- 時間経過の矢印 -->
  <path d="M 80 70 L 120 70" stroke="#333" stroke-width="2" marker-end="url(#arrowhead)"/>
  <text x="160" y="120" font-family="Arial" font-size="18" fill="#333">1時間経過</text>
  
  <!-- 時間の遅れの説明 -->
  <g transform="translate(250, 280)">
    <rect x="-10" y="-25" width="220" height="130" fill="#f0f8ff" stroke="#333" stroke-width="1" rx="10"/>
    <text x="0" y="0" font-family="Arial" font-size="20" fill="#333" font-weight="bold">地球から見ると、</text>
    <text x="0" y="30" font-family="Arial" font-size="20" fill="#333">🚀ロケットの時計は</text>
    <text x="0" y="60" font-family="Arial" font-size="20" fill="#333">🌍地球の時計より</text>
    <text x="0" y="90" font-family="Arial" font-size="20" font-weight="bold" fill="#FF4500">ゆっくり進んでいる！</text>
  </g>

  <!-- 矢印定義 -->
  <defs>
    <marker id="arrowhead" markerWidth="10" markerHeight="7" refX="9" refY="3.5" orient="auto">
      <polygon points="0 0, 10 3.5, 0 7" fill="#333"/>
    </marker>
  </defs>
</svg>